<?xml version="1.0" encoding="UTF-8" standalone="no"?>
<svg width="707px" height="5px" viewBox="0 0 707 5" version="1.1" xmlns="http://www.w3.org/2000/svg" xmlns:xlink="http://www.w3.org/1999/xlink">
    <!-- Generator: Sketch 39.1 (31720) - http://www.bohemiancoding.com/sketch -->
    <title>Group 3</title>
    <desc>Created with Sketch.</desc>
    <defs></defs>
    <g id="Page-1" stroke="none" stroke-width="1" fill="none" fill-rule="evenodd">
        <g id="Desktop-HD" transform="translate(0.000000, -10.000000)" fill="#FDCFA9">
            <g id="Group-4" transform="translate(0.000000, 10.000000)">
                <g id="Group-3">
                    <g id="Group-2">
                        <rect id="Rectangle-2" x="2" y="0" width="1" height="5"></rect>
                        <rect id="Rectangle-2" transform="translate(2.500000, 2.500000) rotate(-90.000000) translate(-2.500000, -2.500000) " x="2" y="0" width="1" height="5"></rect>
                    </g>
                    <g id="Group-2-Copy-16" transform="translate(401.000000, 0.000000)">
                        <rect id="Rectangle-2" x="2" y="0" width="1" height="5"></rect>
                        <rect id="Rectangle-2" transform="translate(2.500000, 2.500000) rotate(-90.000000) translate(-2.500000, -2.500000) " x="2" y="0" width="1" height="5"></rect>
                    </g>
                    <g id="Group-2-Copy-8" transform="translate(201.000000, 0.000000)">
                        <rect id="Rectangle-2" x="2" y="0" width="1" height="5"></rect>
                        <rect id="Rectangle-2" transform="translate(2.500000, 2.500000) rotate(-90.000000) translate(-2.500000, -2.500000) " x="2" y="0" width="1" height="5"></rect>
                    </g>
                    <g id="Group-2-Copy-17" transform="translate(602.000000, 0.000000)">
                        <rect id="Rectangle-2" x="2" y="0" width="1" height="5"></rect>
                        <rect id="Rectangle-2" transform="translate(2.500000, 2.500000) rotate(-90.000000) translate(-2.500000, -2.500000) " x="2" y="0" width="1" height="5"></rect>
                    </g>
                    <g id="Group-2-Copy-4" transform="translate(100.000000, 0.000000)">
                        <rect id="Rectangle-2" x="2" y="0" width="1" height="5"></rect>
                        <rect id="Rectangle-2" transform="translate(2.500000, 2.500000) rotate(-90.000000) translate(-2.500000, -2.500000) " x="2" y="0" width="1" height="5"></rect>
                    </g>
                    <g id="Group-2-Copy-18" transform="translate(501.000000, 0.000000)">
                        <rect id="Rectangle-2" x="2" y="0" width="1" height="5"></rect>
                        <rect id="Rectangle-2" transform="translate(2.500000, 2.500000) rotate(-90.000000) translate(-2.500000, -2.500000) " x="2" y="0" width="1" height="5"></rect>
                    </g>
                    <g id="Group-2-Copy-9" transform="translate(301.000000, 0.000000)">
                        <rect id="Rectangle-2" x="2" y="0" width="1" height="5"></rect>
                        <rect id="Rectangle-2" transform="translate(2.500000, 2.500000) rotate(-90.000000) translate(-2.500000, -2.500000) " x="2" y="0" width="1" height="5"></rect>
                    </g>
                    <g id="Group-2-Copy-19" transform="translate(702.000000, 0.000000)">
                        <rect id="Rectangle-2" x="2" y="0" width="1" height="5"></rect>
                        <rect id="Rectangle-2" transform="translate(2.500000, 2.500000) rotate(-90.000000) translate(-2.500000, -2.500000) " x="2" y="0" width="1" height="5"></rect>
                    </g>
                    <g id="Group-2-Copy-2" transform="translate(50.000000, 0.000000)">
                        <rect id="Rectangle-2" x="2" y="0" width="1" height="5"></rect>
                        <rect id="Rectangle-2" transform="translate(2.500000, 2.500000) rotate(-90.000000) translate(-2.500000, -2.500000) " x="2" y="0" width="1" height="5"></rect>
                    </g>
                    <g id="Group-2-Copy-20" transform="translate(451.000000, 0.000000)">
                        <rect id="Rectangle-2" x="2" y="0" width="1" height="5"></rect>
                        <rect id="Rectangle-2" transform="translate(2.500000, 2.500000) rotate(-90.000000) translate(-2.500000, -2.500000) " x="2" y="0" width="1" height="5"></rect>
                    </g>
                    <g id="Group-2-Copy-10" transform="translate(251.000000, 0.000000)">
                        <rect id="Rectangle-2" x="2" y="0" width="1" height="5"></rect>
                        <rect id="Rectangle-2" transform="translate(2.500000, 2.500000) rotate(-90.000000) translate(-2.500000, -2.500000) " x="2" y="0" width="1" height="5"></rect>
                    </g>
                    <g id="Group-2-Copy-21" transform="translate(652.000000, 0.000000)">
                        <rect id="Rectangle-2" x="2" y="0" width="1" height="5"></rect>
                        <rect id="Rectangle-2" transform="translate(2.500000, 2.500000) rotate(-90.000000) translate(-2.500000, -2.500000) " x="2" y="0" width="1" height="5"></rect>
                    </g>
                    <g id="Group-2-Copy-5" transform="translate(150.000000, 0.000000)">
                        <rect id="Rectangle-2" x="2" y="0" width="1" height="5"></rect>
                        <rect id="Rectangle-2" transform="translate(2.500000, 2.500000) rotate(-90.000000) translate(-2.500000, -2.500000) " x="2" y="0" width="1" height="5"></rect>
                    </g>
                    <g id="Group-2-Copy-22" transform="translate(551.000000, 0.000000)">
                        <rect id="Rectangle-2" x="2" y="0" width="1" height="5"></rect>
                        <rect id="Rectangle-2" transform="translate(2.500000, 2.500000) rotate(-90.000000) translate(-2.500000, -2.500000) " x="2" y="0" width="1" height="5"></rect>
                    </g>
                    <g id="Group-2-Copy-11" transform="translate(351.000000, 0.000000)">
                        <rect id="Rectangle-2" x="2" y="0" width="1" height="5"></rect>
                        <rect id="Rectangle-2" transform="translate(2.500000, 2.500000) rotate(-90.000000) translate(-2.500000, -2.500000) " x="2" y="0" width="1" height="5"></rect>
                    </g>
                    <g id="Group-2-Copy" transform="translate(25.000000, 0.000000)">
                        <rect id="Rectangle-2" x="2" y="0" width="1" height="5"></rect>
                        <rect id="Rectangle-2" transform="translate(2.500000, 2.500000) rotate(-90.000000) translate(-2.500000, -2.500000) " x="2" y="0" width="1" height="5"></rect>
                    </g>
                    <g id="Group-2-Copy-24" transform="translate(426.000000, 0.000000)">
                        <rect id="Rectangle-2" x="2" y="0" width="1" height="5"></rect>
                        <rect id="Rectangle-2" transform="translate(2.500000, 2.500000) rotate(-90.000000) translate(-2.500000, -2.500000) " x="2" y="0" width="1" height="5"></rect>
                    </g>
                    <g id="Group-2-Copy-12" transform="translate(226.000000, 0.000000)">
                        <rect id="Rectangle-2" x="2" y="0" width="1" height="5"></rect>
                        <rect id="Rectangle-2" transform="translate(2.500000, 2.500000) rotate(-90.000000) translate(-2.500000, -2.500000) " x="2" y="0" width="1" height="5"></rect>
                    </g>
                    <g id="Group-2-Copy-25" transform="translate(627.000000, 0.000000)">
                        <rect id="Rectangle-2" x="2" y="0" width="1" height="5"></rect>
                        <rect id="Rectangle-2" transform="translate(2.500000, 2.500000) rotate(-90.000000) translate(-2.500000, -2.500000) " x="2" y="0" width="1" height="5"></rect>
                    </g>
                    <g id="Group-2-Copy-6" transform="translate(125.000000, 0.000000)">
                        <rect id="Rectangle-2" x="2" y="0" width="1" height="5"></rect>
                        <rect id="Rectangle-2" transform="translate(2.500000, 2.500000) rotate(-90.000000) translate(-2.500000, -2.500000) " x="2" y="0" width="1" height="5"></rect>
                    </g>
                    <g id="Group-2-Copy-26" transform="translate(526.000000, 0.000000)">
                        <rect id="Rectangle-2" x="2" y="0" width="1" height="5"></rect>
                        <rect id="Rectangle-2" transform="translate(2.500000, 2.500000) rotate(-90.000000) translate(-2.500000, -2.500000) " x="2" y="0" width="1" height="5"></rect>
                    </g>
                    <g id="Group-2-Copy-13" transform="translate(326.000000, 0.000000)">
                        <rect id="Rectangle-2" x="2" y="0" width="1" height="5"></rect>
                        <rect id="Rectangle-2" transform="translate(2.500000, 2.500000) rotate(-90.000000) translate(-2.500000, -2.500000) " x="2" y="0" width="1" height="5"></rect>
                    </g>
                    <g id="Group-2-Copy-3" transform="translate(75.000000, 0.000000)">
                        <rect id="Rectangle-2" x="2" y="0" width="1" height="5"></rect>
                        <rect id="Rectangle-2" transform="translate(2.500000, 2.500000) rotate(-90.000000) translate(-2.500000, -2.500000) " x="2" y="0" width="1" height="5"></rect>
                    </g>
                    <g id="Group-2-Copy-28" transform="translate(476.000000, 0.000000)">
                        <rect id="Rectangle-2" x="2" y="0" width="1" height="5"></rect>
                        <rect id="Rectangle-2" transform="translate(2.500000, 2.500000) rotate(-90.000000) translate(-2.500000, -2.500000) " x="2" y="0" width="1" height="5"></rect>
                    </g>
                    <g id="Group-2-Copy-14" transform="translate(276.000000, 0.000000)">
                        <rect id="Rectangle-2" x="2" y="0" width="1" height="5"></rect>
                        <rect id="Rectangle-2" transform="translate(2.500000, 2.500000) rotate(-90.000000) translate(-2.500000, -2.500000) " x="2" y="0" width="1" height="5"></rect>
                    </g>
                    <g id="Group-2-Copy-29" transform="translate(677.000000, 0.000000)">
                        <rect id="Rectangle-2" x="2" y="0" width="1" height="5"></rect>
                        <rect id="Rectangle-2" transform="translate(2.500000, 2.500000) rotate(-90.000000) translate(-2.500000, -2.500000) " x="2" y="0" width="1" height="5"></rect>
                    </g>
                    <g id="Group-2-Copy-7" transform="translate(175.000000, 0.000000)">
                        <rect id="Rectangle-2" x="2" y="0" width="1" height="5"></rect>
                        <rect id="Rectangle-2" transform="translate(2.500000, 2.500000) rotate(-90.000000) translate(-2.500000, -2.500000) " x="2" y="0" width="1" height="5"></rect>
                    </g>
                    <g id="Group-2-Copy-30" transform="translate(576.000000, 0.000000)">
                        <rect id="Rectangle-2" x="2" y="0" width="1" height="5"></rect>
                        <rect id="Rectangle-2" transform="translate(2.500000, 2.500000) rotate(-90.000000) translate(-2.500000, -2.500000) " x="2" y="0" width="1" height="5"></rect>
                    </g>
                    <g id="Group-2-Copy-15" transform="translate(376.000000, 0.000000)">
                        <rect id="Rectangle-2" x="2" y="0" width="1" height="5"></rect>
                        <rect id="Rectangle-2" transform="translate(2.500000, 2.500000) rotate(-90.000000) translate(-2.500000, -2.500000) " x="2" y="0" width="1" height="5"></rect>
                    </g>
                </g>
            </g>
        </g>
    </g>
</svg>