<svg xmlns="http://www.w3.org/2000/svg" width="28" height="28"><g fill="none" fill-rule="evenodd"><circle cx="13" cy="13" r="13" stroke="#2A363A" stroke-width="2" transform="translate(1 1)"/><path fill="#2A363A" fill-rule="nonzero" d="M14 8c-3.308 0-6 2.692-6 6s2.692 6 6 6 6-2.692 6-6-2.692-6-6-6zm3.967 2.767a5.1 5.1 0 0 1 1.157 3.192c-.169-.035-1.863-.379-3.568-.165-.14-.34-.27-.638-.45-1.006 1.894-.774 2.753-1.875 2.861-2.021zm-.57-.593c-.092.132-.863 1.168-2.686 1.852a27.356 27.356 0 0 0-1.912-3 5.112 5.112 0 0 1 4.598 1.148zm-5.576-.804a32.7 32.7 0 0 1 1.9 2.964c-2.397.636-4.508.627-4.738.624a5.144 5.144 0 0 1 2.838-3.588zm-2.946 4.638c0-.053.001-.105.003-.157.224.005 2.707.037 5.267-.73.146.288.287.58.415.87-1.853.523-3.537 2.021-4.367 3.443a5.104 5.104 0 0 1-1.318-3.426zm1.98 4.043c.535-1.094 1.987-2.507 4.054-3.212a21.303 21.303 0 0 1 1.093 3.886 5.115 5.115 0 0 1-5.148-.674zm6.008.205a22.12 22.12 0 0 0-.995-3.654 7.522 7.522 0 0 1 3.192.22 5.134 5.134 0 0 1-2.197 3.434z"/></g></svg>