<svg xmlns="http://www.w3.org/2000/svg" width="28" height="28"><g fill="none" fill-rule="evenodd" transform="translate(1 1)"><circle cx="13" cy="13" r="13" stroke="#2A363A" stroke-width="2"/><path fill="#2A363A" fill-rule="nonzero" d="M17.875 8h-9.75C7.504 8 7 8.504 7 9.125v6.75C7 16.496 7.504 17 8.125 17h9.75c.621 0 1.125-.504 1.125-1.125v-6.75C19 8.504 18.496 8 17.875 8zm0 1.125v.956a233.68 233.68 0 0 1-3.154 2.496c-.395.31-1.177 1.057-1.721 1.048-.544.009-1.326-.737-1.72-1.048a233.667 233.667 0 0 1-3.155-2.496v-.956h9.75zm-9.75 6.75v-4.35c.537.428 1.299 1.028 2.46 1.937.512.403 1.409 1.293 2.415 1.288 1.001.005 1.887-.872 2.415-1.288 1.161-.909 1.923-1.51 2.46-1.937v4.35h-9.75z"/></g></svg>