<?xml version="1.0" standalone="no"?>
<!DOCTYPE svg PUBLIC "-//W3C//DTD SVG 20010904//EN"
 "http://www.w3.org/TR/2001/REC-SVG-20010904/DTD/svg10.dtd">
<svg version="1.0" xmlns="http://www.w3.org/2000/svg"
 width="308.000000pt" height="308.000000pt" viewBox="0 0 308.000000 308.000000"
 preserveAspectRatio="xMidYMid meet">
<metadata>
Created by potrace 1.11, written by Peter Selinger 2001-2013
</metadata>
<g transform="translate(0.000000,308.000000) scale(0.100000,-0.100000)"
fill="#000000" stroke="none">
<path d="M976 2522 c-4 -7 -12 -10 -17 -7 -5 4 -9 3 -9 -2 0 -4 -10 -9 -22 -9
-20 -2 -53 -9 -68 -14 -3 -1 -8 -2 -12 -1 -5 0 -8 -3 -8 -8 0 -10 -49 -26 -65
-22 -5 2 -7 -1 -3 -4 4 -4 -17 -24 -47 -43 -30 -20 -53 -38 -51 -40 6 -5 -38
-49 -45 -45 -3 1 -14 -15 -24 -37 -10 -22 -22 -40 -27 -40 -5 0 -6 -4 -3 -10
3 -5 1 -10 -5 -10 -7 0 -9 -7 -6 -16 3 -8 2 -12 -4 -9 -6 3 -10 -4 -10 -17 0
-13 -5 -29 -12 -36 -7 -7 -8 -12 -4 -12 5 0 3 -7 -4 -15 -7 -8 -9 -15 -6 -15
4 0 2 -9 -4 -19 -7 -14 -7 -22 1 -27 8 -5 7 -9 -1 -14 -14 -9 -19 -118 -6
-138 4 -7 4 -12 -1 -12 -4 0 -1 -5 7 -11 12 -8 12 -12 2 -16 -10 -4 -10 -8 -1
-19 6 -8 8 -14 3 -14 -5 0 -2 -5 6 -10 11 -7 11 -10 2 -10 -10 0 -10 -5 -1
-22 7 -13 14 -39 16 -58 2 -19 8 -39 13 -45 6 -7 7 -15 3 -18 -3 -4 -1 -7 6
-7 7 0 9 -4 6 -10 -3 -5 -1 -10 4 -10 6 0 10 -3 9 -7 -3 -15 25 -93 34 -93 5
0 6 -4 3 -10 -3 -5 -1 -10 6 -10 7 0 9 -3 6 -7 -4 -3 1 -12 11 -20 10 -9 11
-11 2 -7 -13 7 -13 6 0 -10 8 -10 15 -25 16 -34 2 -8 10 -19 18 -24 9 -5 16
-15 16 -23 0 -7 6 -20 14 -27 7 -8 20 -27 29 -43 8 -17 37 -54 64 -82 28 -29
48 -55 45 -58 -3 -3 0 -5 6 -5 6 0 14 -9 17 -20 3 -11 13 -20 21 -20 8 0 14
-3 14 -7 0 -5 14 -22 30 -40 17 -18 30 -37 30 -42 0 -6 6 -11 14 -11 8 0 18
-9 21 -20 4 -11 11 -18 16 -15 5 4 9 -1 9 -9 0 -9 4 -16 9 -16 5 0 13 -9 16
-20 3 -11 11 -20 16 -20 13 0 48 -37 42 -44 -4 -3 1 -6 10 -6 9 0 19 -5 23
-12 4 -7 3 -8 -4 -4 -7 4 -12 2 -12 -3 0 -6 3 -11 8 -11 12 0 130 -118 124
-125 -3 -3 0 -5 7 -5 7 0 10 -4 7 -8 -2 -4 8 -17 24 -27 16 -11 35 -30 41 -42
7 -13 15 -21 17 -18 6 6 38 -37 34 -48 -1 -4 5 -7 14 -7 8 0 13 -4 10 -8 -2
-4 8 -17 24 -27 16 -11 35 -30 41 -42 7 -13 18 -23 25 -23 7 0 16 -9 19 -20 3
-11 12 -20 18 -20 16 0 38 15 40 26 1 5 18 23 39 40 20 18 34 34 31 38 -4 3 0
6 7 6 7 0 11 3 8 6 -8 7 35 51 45 47 4 -2 7 3 7 11 0 8 9 18 21 21 11 4 18 9
15 12 -3 3 10 19 29 36 19 17 35 35 35 40 0 13 27 37 34 30 3 -4 6 1 6 10 0 9
7 17 15 17 8 0 15 4 15 8 0 5 9 18 20 30 12 12 18 22 15 22 -3 0 3 8 13 18 9
11 20 17 25 15 4 -2 7 0 7 6 0 6 16 25 35 42 19 18 33 35 32 38 -2 3 10 18 25
33 15 15 28 24 28 20 0 -3 11 10 25 29 14 19 45 54 68 79 79 84 157 177 157
189 0 6 5 11 10 11 6 0 10 7 10 15 0 9 7 18 15 21 8 4 12 10 9 15 -3 5 0 9 6
9 6 0 8 5 5 10 -3 6 -1 10 4 10 6 0 11 7 11 15 0 8 5 15 11 15 5 0 8 4 4 9 -3
5 -1 12 4 15 12 8 53 86 44 86 -3 0 1 8 10 18 10 10 14 22 10 25 -3 4 -1 7 5
7 7 0 11 3 10 8 -3 13 14 62 22 62 7 0 25 86 22 103 -1 4 2 7 6 7 4 0 9 16 10
36 2 20 8 46 13 57 9 15 8 18 -3 11 -11 -6 -11 -5 1 9 7 9 9 17 4 17 -5 0 -8
14 -5 30 2 17 8 30 12 30 10 0 -1 54 -13 62 -7 4 -6 12 2 22 8 9 9 16 4 16 -5
0 -10 12 -11 26 -1 15 -7 33 -13 40 -9 11 -8 14 2 14 9 0 10 3 3 8 -5 4 -16
23 -24 42 -8 19 -16 37 -19 40 -4 3 -13 18 -20 33 -8 15 -32 46 -53 69 -21 23
-38 45 -38 50 0 6 -5 8 -12 6 -7 -3 -23 7 -35 20 -13 14 -23 21 -23 16 0 -5
-4 -4 -8 1 -11 16 -84 57 -76 43 5 -9 2 -9 -9 1 -9 7 -17 10 -17 5 0 -4 -7 1
-16 12 -8 10 -13 13 -9 7 3 -7 1 -13 -4 -13 -6 0 -11 5 -11 11 0 5 -4 7 -10 4
-5 -3 -10 -2 -10 3 0 5 -11 8 -25 7 -14 -2 -25 1 -25 7 0 6 -6 5 -15 -2 -12
-10 -15 -10 -15 1 0 10 -3 10 -12 1 -7 -7 -17 -8 -29 -2 -12 7 -22 6 -31 -3
-7 -6 -21 -12 -30 -13 -61 -3 -69 -5 -62 -16 4 -7 3 -8 -5 -4 -6 4 -23 1 -36
-8 -13 -9 -28 -16 -32 -16 -4 0 -1 5 7 10 10 7 11 10 2 10 -7 0 -15 -7 -18
-15 -4 -8 -10 -15 -15 -15 -6 0 -19 -9 -31 -20 -12 -10 -25 -17 -30 -14 -4 3
-8 -2 -8 -11 0 -9 -4 -13 -10 -10 -5 3 -10 2 -10 -3 0 -5 -17 -27 -37 -49 -82
-87 -101 -111 -96 -117 4 -3 1 -6 -5 -6 -7 0 -12 -6 -12 -13 0 -8 -11 -24 -25
-37 -14 -13 -25 -19 -25 -13 0 5 -8 19 -17 31 -41 48 -49 58 -52 67 -13 36
-14 37 -22 23 -7 -10 -9 -10 -9 2 0 9 -13 30 -29 47 -16 18 -27 34 -24 37 2 2
-5 7 -16 11 -12 3 -21 11 -21 16 0 6 -4 7 -10 4 -5 -3 -10 0 -10 8 0 7 -18 22
-40 33 -22 10 -40 22 -40 27 0 4 -9 7 -20 7 -11 0 -20 5 -20 11 0 5 -4 7 -10
4 -5 -3 -10 -2 -10 4 0 6 -7 7 -17 4 -12 -5 -14 -3 -8 8 7 11 6 12 -6 2 -11
-9 -18 -8 -33 3 -16 11 -21 11 -28 1 -6 -9 -8 -9 -8 0 0 7 -7 10 -15 7 -8 -4
-15 -1 -15 5 0 9 -5 9 -20 1 -15 -8 -20 -8 -20 1 0 9 -3 9 -14 0 -11 -9 -15
-9 -18 1 -3 9 -6 9 -12 0z"/>
</g>
</svg>
