<?xml version="1.0" encoding="UTF-8" standalone="no"?>
<svg width="28px" height="28px" viewBox="0 0 28 28" version="1.1" xmlns="http://www.w3.org/2000/svg" xmlns:xlink="http://www.w3.org/1999/xlink">
    <!-- Generator: Sketch 50.2 (55047) - http://www.bohemiancoding.com/sketch -->
    <title>Group 3</title>
    <desc>Created with Sketch.</desc>
    <defs></defs>
    <g id="For-Now" stroke="none" stroke-width="1" fill="none" fill-rule="evenodd">
        <g id="Desktop-Home" transform="translate(-309.000000, -689.000000)">
            <g id="Group-3" transform="translate(310.000000, 690.000000)">
                <g id="Group" stroke="#2A363A" stroke-width="2">
                    <circle id="Oval" cx="13" cy="13" r="13"></circle>
                </g>
                <g id="dribbble" transform="translate(7.000000, 7.000000)" fill="#2A363A" fill-rule="nonzero">
                    <path d="M6,0 C2.69158065,0 0,2.69158065 0,6 C0,9.30841935 2.69158065,12 6,12 C9.30841935,12 12,9.30841935 12,6 C12,2.69158065 9.30841935,0 6,0 Z M9.96701613,2.76691935 C10.6807984,3.639 11.1130403,4.74975 11.1243145,5.95937903 C10.9553468,5.92364516 9.26097581,5.57997581 7.55571774,5.79442742 C7.41655645,5.45472581 7.28520968,5.1558871 7.10530645,4.7876371 C9.00016935,4.014 9.85896774,2.91307258 9.96701613,2.76691935 Z M9.39728226,2.17427419 C9.30510484,2.30557258 8.53364516,3.34248387 6.71129032,4.02554032 C5.87148387,2.48257258 4.94068548,1.21502419 4.79903226,1.02534677 C6.42425806,0.633580645 8.13691935,1.05607258 9.39728226,2.17427419 Z M3.82115323,1.36983871 C3.95627419,1.5551371 4.87207258,2.82425806 5.72124194,4.33376613 C3.32397581,4.97037097 1.21253226,4.96120161 0.983322581,4.95817742 C1.31564516,3.3678629 2.38737097,2.04612097 3.82115323,1.36983871 Z M0.875080645,6.00781452 C0.875080645,5.95541129 0.876120968,5.90325 0.877693548,5.85120968 C1.10191935,5.85580645 3.58543548,5.88781452 6.14477419,5.12187097 C6.29148387,5.409 6.4316371,5.70045968 6.56027419,5.99160484 C4.70707258,6.51358065 3.02332258,8.01241935 2.19258871,9.43449194 C1.37404839,8.52592742 0.875080645,7.3241129 0.875080645,6.00781452 Z M2.85428226,10.050871 C3.3896129,8.95652419 4.84245968,7.5438871 6.9086129,6.83903226 C7.62812903,8.70878226 7.92568548,10.2757984 8.00189516,10.7254355 C6.35402419,11.4273629 4.3725,11.2347823 2.85428226,10.050871 Z M8.86347581,10.25625 C8.81095161,9.94449194 8.53816935,8.44422581 7.8678629,6.60222581 C9.47383065,6.34514516 10.8847984,6.76596774 11.060129,6.82129839 C10.8316935,8.24729032 10.0132016,9.47881452 8.86347581,10.25625 Z" id="Shape"></path>
                </g>
            </g>
        </g>
    </g>
</svg>