<?xml version="1.0" encoding="UTF-8" standalone="no"?>
<svg width="28px" height="28px" viewBox="0 0 28 28" version="1.1" xmlns="http://www.w3.org/2000/svg" xmlns:xlink="http://www.w3.org/1999/xlink">
    <!-- Generator: Sketch 50.2 (55047) - http://www.bohemiancoding.com/sketch -->
    <title>Group 4</title>
    <desc>Created with Sketch.</desc>
    <defs></defs>
    <g id="For-Now" stroke="none" stroke-width="1" fill="none" fill-rule="evenodd">
        <g id="Desktop-Home" transform="translate(-236.000000, -689.000000)">
            <g id="Group-4" transform="translate(237.000000, 690.000000)">
                <circle id="Oval-Copy" stroke="#2A363A" stroke-width="2" cx="13" cy="13" r="13"></circle>
                <path d="M17.875,8 L8.125,8 C7.50367188,8 7,8.50367188 7,9.125 L7,15.875 C7,16.4963281 7.50367188,17 8.125,17 L17.875,17 C18.4963281,17 19,16.4963281 19,15.875 L19,9.125 C19,8.50367188 18.4963281,8 17.875,8 Z M17.875,9.125 L17.875,10.0813672 C17.3494844,10.5093125 16.5116875,11.17475 14.7206172,12.5772266 C14.3259062,12.8877031 13.5440312,13.6336016 13,13.6249063 C12.4560625,13.6336953 11.6739297,12.8875859 11.2793828,12.5772266 C9.48859375,11.1749609 8.65058594,10.5093828 8.125,10.0813672 L8.125,9.125 L17.875,9.125 Z M8.125,15.875 L8.125,11.5249531 C8.66204687,11.9527109 9.42364844,12.5529688 10.5844844,13.4619688 C11.0967578,13.8652109 11.993875,14.7553906 13,14.7499766 C14.0011797,14.7553906 14.8869297,13.878125 15.4153047,13.4621563 C16.5761172,12.5531797 17.3379297,11.9527578 17.875,11.5249531 L17.875,15.875 L8.125,15.875 Z" id="Shape" fill="#2A363A" fill-rule="nonzero"></path>
            </g>
        </g>
    </g>
</svg>