<svg xmlns="http://www.w3.org/2000/svg" width="28" height="28">
  <g fill="none" fill-rule="evenodd" transform="translate(1 1)">
    <circle cx="13" cy="13" r="13" stroke="#2A363A" stroke-width="2"/>
    <path fill="#2A363A" fill-rule="nonzero" d="M11.015 17H9.149v-6.009h1.866V17zm-.934-6.828A1.09 1.09 0 0 1 9 9.08a1.081 1.081 0 0 1 2.161 0 1.09 1.09 0 0 1-1.08 1.09zM17.998 17h-1.862v-2.925c0-.697-.014-1.591-.97-1.591-.97 0-1.119.757-1.119 1.54V17h-1.864v-6.009h1.79v.82h.026c.25-.472.858-.97 1.766-.97 1.888 0 2.235 1.243 2.235 2.858V17h-.002z"/>
  </g>
</svg>
